<svg width="571" height="706" xmlns="http://www.w3.org/2000/svg" xmlns:xlink="http://www.w3.org/1999/xlink" xml:space="preserve" overflow="hidden"><defs><clipPath id="clip0"><rect x="354" y="0" width="571" height="706"/></clipPath><clipPath id="clip1"><rect x="354" y="0" width="571" height="706"/></clipPath><clipPath id="clip2"><rect x="355" y="0" width="570" height="706"/></clipPath><clipPath id="clip3"><rect x="355" y="0" width="571" height="706"/></clipPath></defs><g clip-path="url(#clip0)" transform="translate(-354 0)"><g clip-path="url(#clip1)"><g clip-path="url(#clip2)"><g clip-path="url(#clip3)"><g><path d="M206.784 21.9316C264.746 21.9316 318.008 50.1293 355.605 93.9925 391.635 136.289 413.567 194.251 413.567 258.479 413.567 263.179 413.567 267.879 413.567 272.578L332.107 272.578C332.107 267.879 332.107 263.179 332.107 258.479 332.107 214.616 316.441 173.886 292.943 145.688 271.012 119.057 239.681 103.392 205.217 103.392 170.753 103.392 140.989 119.057 117.491 145.688 95.5591 170.753 81.4602 206.784 78.3271 245.947 78.3271 249.08 78.3271 253.78 78.3271 256.913 78.3271 260.046 78.3271 264.746 78.3271 267.879 81.4602 307.042 95.5591 343.073 117.491 368.137 139.422 394.769 170.753 410.434 205.217 410.434L361.871 410.434C358.738 413.567 357.172 416.7 354.039 419.833 316.441 463.696 263.179 491.894 205.217 491.894 147.255 491.894 97.1256 466.83 57.9621 422.966 21.9316 379.103 0 321.141 0 258.479 0 194.251 21.9316 136.289 57.9621 93.9925 97.1256 48.5628 148.822 21.9316 206.784 21.9316" fill="#BDBEBF" fill-rule="nonzero" fill-opacity="1" transform="matrix(1.00216 0 0 1 355 4.4444)"/><path d="M206.784 300.776 413.567 300.776C443.331 300.776 466.83 313.308 484.061 330.54 491.894 338.373 498.16 349.339 501.293 358.738 505.993 369.704 507.56 380.67 507.56 391.635 507.56 416.7 498.16 441.765 474.662 462.13L347.772 578.054C343.073 581.187 341.506 585.887 341.506 589.02 341.506 590.586 341.506 592.153 341.506 593.719 341.506 595.286 343.073 595.286 343.073 596.852 344.639 598.419 347.772 599.986 352.472 599.986L560.822 599.986 560.822 681.446 352.472 681.446C324.274 681.446 299.21 670.48 283.544 651.681 275.711 643.849 269.445 632.883 266.312 623.484 261.613 612.518 260.046 601.552 260.046 590.586 260.046 565.522 269.445 538.891 291.377 520.092L418.267 404.168C422.966 401.035 424.533 396.335 424.533 393.202 424.533 391.635 424.533 390.069 424.533 390.069 424.533 388.502 422.966 386.936 422.966 386.936 421.4 383.803 416.7 382.236 412.001 382.236L206.784 382.236 206.784 300.776Z" fill="#D9B78E" fill-rule="nonzero" fill-opacity="1" transform="matrix(1.00216 0 0 1 355 4.4444)"/><path d="M2022.41 675.18 2022.41 516.959 2047.47 516.959 2047.47 675.18 2022.41 675.18ZM1966.01 675.18 1947.21 634.45 1884.55 634.45 1865.75 675.18 1839.12 675.18 1915.88 510.693 1992.64 675.18 1966.01 675.18ZM1893.95 612.518 1937.81 612.518 1922.15 576.487C1920.58 574.921 1920.58 571.788 1919.01 568.655 1917.45 565.522 1917.45 562.389 1915.88 559.256 1914.31 562.389 1914.31 565.522 1912.75 568.655 1911.18 571.788 1911.18 574.921 1909.61 576.487L1893.95 612.518ZM1680.9 675.18 1680.9 516.959 1705.96 516.959 1705.96 574.921 1784.29 574.921 1784.29 516.959 1809.36 516.959 1809.36 675.18 1784.29 675.18 1784.29 598.419 1705.96 598.419 1705.96 675.18 1680.9 675.18ZM1577.51 593.719 1640.17 593.719C1640.17 595.286 1640.17 596.852 1640.17 598.419 1640.17 603.119 1640.17 606.252 1640.17 609.385 1640.17 631.316 1633.9 648.548 1621.37 661.081 1608.84 673.613 1590.04 679.879 1566.54 679.879 1554.01 679.879 1541.48 678.313 1532.08 673.613 1521.11 670.48 1513.28 664.214 1505.45 656.381 1497.61 648.548 1492.91 639.149 1488.21 629.75 1483.52 618.784 1481.95 607.818 1481.95 596.852 1481.95 584.32 1483.52 573.354 1488.21 563.955 1492.91 554.556 1497.61 545.157 1507.01 537.324 1514.85 529.491 1524.25 523.225 1533.64 520.092 1544.61 515.392 1555.58 513.826 1566.54 513.826 1579.07 513.826 1590.04 515.392 1599.44 520.092 1608.84 524.792 1618.24 531.058 1626.07 540.457L1607.27 554.556C1602.57 548.29 1596.31 543.59 1588.47 540.457 1582.21 537.324 1574.37 535.757 1566.54 535.757 1549.31 535.757 1535.21 542.023 1524.25 552.989 1513.28 563.955 1508.58 578.054 1508.58 595.286 1508.58 612.518 1513.28 628.183 1524.25 639.149 1535.21 650.115 1549.31 656.381 1566.54 656.381 1580.64 656.381 1593.17 653.248 1601.01 645.415 1608.84 639.149 1613.54 629.75 1613.54 617.218L1613.54 615.651 1575.94 615.651 1575.94 593.719ZM1297.1 675.18 1297.1 510.693 1397.36 607.818C1400.49 610.951 1403.62 614.084 1405.19 617.218 1408.32 620.351 1411.45 623.484 1414.59 628.183L1414.59 518.525 1438.09 518.525 1438.09 683.012 1334.69 584.32C1331.56 581.187 1329.99 578.054 1326.86 576.487 1323.73 573.354 1322.16 570.221 1319.03 567.088L1319.03 678.313 1297.1 678.313ZM1240.7 675.18 1221.9 634.45 1159.24 634.45 1140.44 675.18 1113.81 675.18 1190.57 510.693 1268.9 675.18 1240.7 675.18ZM1170.21 612.518 1214.07 612.518 1198.4 576.487C1196.84 574.921 1196.84 571.788 1195.27 568.655 1193.7 565.522 1193.7 562.389 1192.14 559.256 1190.57 562.389 1190.57 565.522 1189.01 568.655 1187.44 571.788 1187.44 574.921 1185.87 576.487L1170.21 612.518ZM957.157 675.18 957.157 516.959 982.222 516.959 982.222 574.921 1060.55 574.921 1060.55 516.959 1085.61 516.959 1085.61 675.18 1060.55 675.18 1060.55 598.419 982.222 598.419 982.222 675.18 957.157 675.18ZM811.469 643.849 831.834 634.45C833.4 642.282 838.1 646.982 842.8 650.115 847.499 653.248 855.332 656.381 863.165 656.381 870.997 656.381 877.264 654.815 881.963 650.115 886.663 645.415 888.229 640.716 888.229 632.883 888.229 623.484 880.397 615.651 864.731 607.818 863.165 606.252 861.598 606.252 860.032 604.685 842.8 596.852 830.267 589.02 825.568 581.187 819.301 574.921 816.168 565.522 816.168 556.122 816.168 543.59 820.868 532.624 828.701 524.792 838.1 516.959 849.066 512.259 863.165 512.259 874.13 512.259 885.096 513.826 892.929 518.525 900.762 523.225 907.028 529.491 908.594 537.324L888.229 548.29C885.096 543.59 881.963 538.891 877.264 537.324 874.13 535.757 869.431 534.191 864.731 534.191 858.465 534.191 852.199 535.757 847.499 538.891 842.8 542.023 841.233 546.723 841.233 552.989 841.233 562.389 850.632 571.788 867.864 579.621 869.431 579.621 870.997 581.187 870.997 581.187 886.663 589.02 897.629 595.286 903.895 603.119 910.161 609.385 913.294 618.784 913.294 629.75 913.294 645.415 908.594 656.381 899.195 665.78 889.796 675.18 877.264 678.313 860.032 678.313 845.933 678.313 834.967 675.18 827.134 668.913 820.868 664.214 814.602 654.815 811.469 643.849Z" fill="#231815" fill-rule="nonzero" fill-opacity="1" transform="matrix(1.00216 0 0 1 355 4.4444)"/><path d="M2398.38 668.913 2398.38 510.693 2423.44 510.693 2423.44 668.913 2398.38 668.913ZM2331.01 648.548 2365.48 684.579 2334.15 684.579 2313.78 662.647C2305.95 665.78 2299.68 668.913 2291.85 670.48 2284.02 672.047 2276.19 673.613 2268.35 673.613 2257.39 673.613 2246.42 672.047 2237.02 667.347 2226.06 662.647 2218.22 656.381 2210.39 650.115 2202.56 642.282 2196.29 632.883 2191.59 623.484 2186.89 614.084 2185.33 603.119 2185.33 590.586 2185.33 579.621 2186.89 568.655 2191.59 557.689 2196.29 548.29 2202.56 538.891 2210.39 531.058 2218.22 523.225 2227.62 516.959 2237.02 513.826 2247.99 509.126 2258.95 507.56 2269.92 507.56 2280.89 507.56 2291.85 509.126 2302.82 513.826 2313.78 518.525 2321.62 523.225 2329.45 531.058 2337.28 538.891 2343.55 548.29 2348.25 557.689 2352.95 567.088 2354.51 578.054 2354.51 589.02 2354.51 599.986 2352.95 610.951 2348.25 620.351 2345.11 631.316 2338.85 640.716 2331.01 648.548ZM2299.68 612.518 2315.35 628.183C2320.05 621.917 2323.18 615.651 2326.31 609.385 2327.88 603.119 2329.45 596.852 2329.45 589.02 2329.45 581.187 2327.88 573.354 2324.75 565.522 2321.62 557.689 2318.48 551.423 2312.22 546.723 2305.95 540.457 2299.68 537.324 2293.42 534.191 2285.58 531.058 2279.32 529.491 2271.49 529.491 2263.65 529.491 2255.82 531.058 2249.55 534.191 2241.72 537.324 2235.46 542.023 2230.76 546.723 2224.49 552.989 2221.36 559.256 2218.22 565.522 2215.09 573.354 2213.52 579.621 2213.52 589.02 2213.52 606.252 2219.79 620.351 2230.76 631.316 2241.72 642.282 2255.82 648.548 2273.05 648.548 2277.75 648.548 2282.45 648.548 2285.58 646.982 2290.28 645.415 2293.42 643.849 2298.12 642.282L2269.92 610.951 2299.68 610.951Z" fill="#231815" fill-rule="nonzero" fill-opacity="1" transform="matrix(1.00216 0 0 1 355 4.4444)"/><path d="M2898.1 675.18 2898.1 516.959 2923.17 516.959 2923.17 675.18 2898.1 675.18ZM2717.95 675.18 2717.95 516.959 2743.02 516.959 2743.02 574.921 2821.34 574.921 2821.34 516.959 2846.41 516.959 2846.41 675.18 2821.34 675.18 2821.34 598.419 2743.02 598.419 2743.02 675.18 2717.95 675.18ZM2559.73 675.18 2641.19 538.891 2573.83 538.891 2573.83 516.959 2680.35 516.959 2600.46 653.248 2681.92 653.248 2681.92 676.746 2559.73 676.746Z" fill="#231815" fill-rule="nonzero" fill-opacity="1" transform="matrix(1.00216 0 0 1 355 4.4444)"/><path d="M4088.67 675.18 4088.67 516.959 4177.97 516.959 4177.97 538.891 4115.31 538.891 4115.31 578.054 4177.97 578.054 4177.97 599.986 4115.31 599.986 4115.31 651.681 4177.97 651.681 4177.97 675.18 4088.67 675.18ZM4013.48 538.891 4013.48 675.18 3988.42 675.18 3988.42 538.891 3946.12 538.891 3946.12 516.959 4055.78 516.959 4055.78 538.891 4013.48 538.891ZM3781.63 516.959 3806.7 516.959 3806.7 614.084C3806.7 628.183 3809.83 639.149 3816.1 646.982 3822.36 654.815 3833.33 657.948 3845.86 657.948 3858.39 657.948 3869.36 654.815 3875.62 646.982 3881.89 639.149 3885.02 629.75 3885.02 614.084L3885.02 516.959 3910.09 516.959 3910.09 615.651C3910.09 637.583 3905.39 653.248 3894.42 664.214 3883.46 675.18 3867.79 679.879 3845.86 679.879 3823.93 679.879 3808.26 675.18 3797.3 664.214 3786.33 653.248 3781.63 637.583 3781.63 615.651L3781.63 516.959ZM3708 538.891 3708 675.18 3681.37 675.18 3681.37 538.891 3639.08 538.891 3639.08 516.959 3748.74 516.959 3748.74 538.891 3708 538.891ZM3579.55 675.18 3579.55 516.959 3604.61 516.959 3604.61 675.18 3579.55 675.18ZM3504.35 538.891 3504.35 675.18 3479.29 675.18 3479.29 538.891 3436.99 538.891 3436.99 516.959 3546.65 516.959 3546.65 538.891 3504.35 538.891ZM3308.54 643.849 3328.9 634.45C3330.47 642.282 3335.17 646.982 3339.87 650.115 3344.57 653.248 3352.4 656.381 3360.23 656.381 3368.07 656.381 3374.33 654.815 3379.03 650.115 3383.73 645.415 3385.3 640.716 3385.3 632.883 3385.3 623.484 3377.46 615.651 3361.8 607.818 3360.23 606.252 3358.67 606.252 3357.1 604.685 3339.87 596.852 3327.34 589.02 3322.64 581.187 3316.37 574.921 3313.24 565.522 3313.24 556.122 3313.24 543.59 3317.94 532.624 3325.77 524.792 3335.17 516.959 3346.13 512.259 3360.23 512.259 3371.2 512.259 3382.16 513.826 3390 518.525 3397.83 523.225 3404.1 529.491 3405.66 537.324L3385.3 548.29C3382.16 543.59 3379.03 538.891 3374.33 537.324 3371.2 535.757 3366.5 534.191 3361.8 534.191 3355.53 534.191 3349.27 535.757 3344.57 538.891 3339.87 542.023 3338.3 546.723 3338.3 552.989 3338.3 562.389 3347.7 571.788 3364.93 579.621 3366.5 579.621 3368.07 581.187 3368.07 581.187 3383.73 589.02 3394.7 595.286 3400.96 603.119 3407.23 609.385 3410.36 618.784 3410.36 629.75 3410.36 645.415 3405.66 656.381 3396.26 665.78 3386.86 675.18 3374.33 678.313 3357.1 678.313 3343 678.313 3332.03 675.18 3324.2 668.913 3316.37 664.214 3311.67 654.815 3308.54 643.849ZM3125.25 675.18 3125.25 510.693 3225.51 607.818C3228.64 610.951 3231.78 614.084 3233.34 617.218 3236.48 620.351 3239.61 623.484 3242.74 628.183L3242.74 518.525 3266.24 518.525 3266.24 683.012 3162.85 584.32C3159.72 581.187 3158.15 578.054 3155.02 576.487 3151.88 573.354 3150.32 570.221 3147.18 567.088L3147.18 678.313 3125.25 678.313ZM3048.49 675.18 3048.49 516.959 3073.56 516.959 3073.56 675.18 3048.49 675.18Z" fill="#231815" fill-rule="nonzero" fill-opacity="1" transform="matrix(1.00216 0 0 1 355 4.4444)"/><path d="M2146.16 187.985 2092.9 187.985 2092.9 252.213 2146.16 252.213 2146.16 187.985ZM1865.75 294.51 1940.95 294.51 1940.95 249.08 1865.75 249.08 1865.75 294.51ZM1825.02 325.841 1879.85 325.841 1851.65 386.936 1793.69 386.936 1825.02 325.841ZM1865.75 126.89 1865.75 166.053 1940.95 166.053 1940.95 126.89 1865.75 126.89ZM1865.75 228.715 1940.95 228.715 1940.95 184.852 1865.75 184.852 1865.75 228.715ZM2146.16 106.525 2132.06 106.525 2092.9 106.525 2092.9 166.053 2146.16 166.053 2146.16 106.525ZM2011.44 314.875 1778.03 314.875 1778.03 292.943 1807.79 292.943 1807.79 126.89 1778.03 126.89 1778.03 106.525 1807.79 106.525 1807.79 83.0267 1864.19 83.0267 1864.19 106.525 1939.38 106.525 1939.38 83.0267 1995.77 83.0267 1995.77 106.525 2025.54 106.525 2009.87 126.89 1994.21 126.89 1994.21 294.51 2023.97 294.51 2011.44 314.875ZM2204.12 83.0267 2204.12 386.936 2124.23 386.936 2114.83 369.704 2146.16 369.704 2146.16 274.145 2092.9 274.145 2092.9 327.407 2070.97 388.502 1955.04 388.502 1922.15 327.407 1981.68 327.407 2009.87 385.369 2034.94 324.274 2034.94 83.0267 2204.12 83.0267Z" fill="#231815" fill-rule="nonzero" fill-opacity="1" transform="matrix(1.00216 0 0 1 355 4.4444)"/><path d="M2515.87 241.247 2453.2 241.247 2403.08 194.251 2465.74 194.251 2515.87 241.247ZM2379.58 328.974 2379.58 363.438 2627.09 363.438 2627.09 328.974 2379.58 328.974ZM2359.21 156.654 2387.41 120.624 2359.21 120.624 2345.11 140.989 2282.45 140.989 2321.62 79.8936 2384.28 79.8936 2371.74 100.259 2509.6 100.259 2497.07 122.19 2448.51 122.19 2420.31 158.221 2520.57 158.221 2508.03 183.285 2401.51 183.285 2354.51 242.814 2291.85 242.814 2338.85 183.285 2287.15 183.285 2287.15 156.654 2359.21 156.654ZM2649.02 115.924 2584.79 115.924 2584.79 208.35 2649.02 208.35 2649.02 115.924ZM2528.4 92.426 2584.79 92.426 2649.02 92.426 2705.42 92.426 2705.42 115.924 2705.42 208.35 2705.42 231.848 2649.02 231.848 2584.79 231.848 2528.4 231.848 2528.4 208.35 2528.4 115.924 2528.4 92.426ZM2321.62 252.213 2627.09 252.213 2627.09 275.711 2614.56 275.711 2379.58 275.711 2379.58 305.476 2627.09 305.476 2627.09 252.213 2683.49 252.213 2683.49 386.936 2321.62 386.936 2321.62 252.213Z" fill="#231815" fill-rule="nonzero" fill-opacity="1" transform="matrix(1.00216 0 0 1 355 4.4444)"/><path d="M2879.3 365.004 2905.94 365.004 2905.94 216.183 2879.3 216.183 2879.3 365.004ZM3062.59 211.483 3120.55 211.483 3120.55 112.791 3062.59 112.791 3062.59 211.483ZM2956.06 192.685 2956.06 386.936 2824.48 386.936 2824.48 234.981 2785.31 234.981 2846.41 119.057 2810.38 119.057 2810.38 95.5591 2949.8 95.5591 2941.97 119.057 2901.24 119.057 2858.94 191.118 2956.06 191.118ZM3220.81 89.2929 3208.28 112.791 3178.51 112.791 3178.51 211.483 3225.51 211.483 3216.11 234.981 3176.95 234.981 3176.95 388.502 3120.55 388.502 3120.55 234.981 3062.59 234.981 3062.59 313.308 3050.06 388.502 2993.66 388.502 3006.19 313.308 3006.19 234.981 2967.03 234.981 2967.03 211.483 3006.19 211.483 3006.19 112.791 2963.9 112.791 2963.9 89.2929 3220.81 89.2929Z" fill="#231815" fill-rule="nonzero" fill-opacity="1" transform="matrix(1.00216 0 0 1 355 4.4444)"/><path d="M3576.42 200.517 3535.69 139.422 3598.35 139.422 3637.51 200.517Z" fill="#231815" fill-rule="nonzero" fill-opacity="1" transform="matrix(1.00216 0 0 1 355 4.4444)"/><path d="M3435.43 139.422 3394.7 200.517 3333.6 200.517 3372.77 139.422Z" fill="#231815" fill-rule="nonzero" fill-opacity="1" transform="matrix(1.00216 0 0 1 355 4.4444)"/><path d="M3518.45 98.6922 3579.55 98.6922 3643.78 98.6922 3650.04 98.6922 3700.17 98.6922 3700.17 142.555 3643.78 142.555 3643.78 120.624 3628.11 120.624 3579.55 120.624 3339.87 120.624 3339.87 142.555 3283.47 142.555 3283.47 98.6922 3462.06 98.6922 3462.06 75.194 3518.45 75.194Z" fill="#231815" fill-rule="nonzero" fill-opacity="1" transform="matrix(1.00216 0 0 1 355 4.4444)"/><path d="M3621.85 365.004 3708 365.004 3693.91 386.936 3565.45 386.936 3565.45 241.247 3551.35 241.247 3490.26 241.247 3466.76 241.247 3379.03 386.936 3317.94 386.936 3405.66 241.247 3306.97 241.247 3306.97 219.316 3415.06 219.316 3436.99 186.419 3498.09 186.419 3477.72 219.316 3490.26 219.316 3579.55 219.316 3621.85 219.316Z" fill="#231815" fill-rule="nonzero" fill-opacity="1" transform="matrix(1.00216 0 0 1 355 4.4444)"/><path d="M3839.59 222.449 3859.96 109.658 3839.59 109.658 3839.59 222.449ZM4143.5 184.852 3942.99 184.852 3942.99 161.354 4156.04 161.354 4143.5 184.852ZM3974.32 385.369 3917.92 385.369 3980.58 230.282 3928.89 230.282 3928.89 206.784 4174.83 206.784 4162.3 230.282 4110.61 230.282 4110.61 363.438 4177.97 363.438 4163.87 386.936 4054.21 386.936 4054.21 230.282 4036.98 230.282 3974.32 385.369ZM4123.14 122.19 4110.61 122.19 4079.28 122.19 3969.62 122.19 3969.62 137.856 3916.36 137.856 3916.36 98.6922 4021.31 98.6922 4021.31 79.8936 4073.01 79.8936 4073.01 98.6922 4077.71 98.6922 4140.37 98.6922 4176.4 98.6922 4176.4 137.856 4123.14 137.856 4123.14 122.19ZM3885.02 214.616 3906.96 214.616 3906.96 371.27 3848.99 336.807 3848.99 308.609 3863.09 318.008 3863.09 234.981 3839.59 234.981 3839.59 386.936 3787.9 386.936 3787.9 87.7264 3910.09 87.7264 3885.02 214.616Z" fill="#231815" fill-rule="nonzero" fill-opacity="1" transform="matrix(1.00216 0 0 1 355 4.4444)"/><path d="M1204.67 178.586 1192.14 200.517 991.621 200.517 991.621 361.871 1217.2 361.871 1203.1 383.803 811.469 383.803 811.469 361.871 930.526 361.871 930.526 83.0267 991.621 83.0267 991.621 178.586Z" fill="#231815" fill-rule="nonzero" fill-opacity="1" transform="matrix(1.00216 0 0 1 355 4.4444)"/><path d="M1494.48 266.312 1552.44 266.312 1583.77 321.141 1524.25 321.141 1494.48 266.312ZM1369.16 156.654 1337.83 156.654 1369.16 220.882 1314.33 220.882 1281.43 155.088 1311.2 155.088 1278.3 87.7264 1333.13 87.7264 1369.16 156.654ZM1336.26 385.369 1281.43 385.369 1314.33 241.247 1369.16 241.247 1336.26 385.369ZM1458.45 79.8936 1453.75 97.1256 1696.57 97.1256 1676.2 122.19 1386.39 122.19 1398.92 79.8936 1458.45 79.8936ZM1622.94 245.947 1452.18 245.947 1452.18 330.54 1622.94 330.54 1622.94 245.947ZM1622.94 159.787 1605.71 159.787 1564.98 159.787 1452.18 159.787 1452.18 222.449 1519.55 222.449 1488.21 172.32 1546.18 172.32 1579.07 222.449 1622.94 222.449 1622.94 159.787ZM1679.33 245.947 1679.33 330.54 1709.1 330.54 1690.3 354.039 1679.33 354.039 1679.33 388.502 1583.77 388.502 1571.24 368.137 1621.37 368.137 1621.37 355.605 1394.22 355.605 1394.22 249.08 1380.12 249.08 1380.12 227.149 1394.22 227.149 1394.22 139.422 1564.98 139.422 1640.17 139.422 1680.9 139.422 1680.9 224.016 1710.66 224.016 1691.87 245.947 1679.33 245.947Z" fill="#231815" fill-rule="nonzero" fill-opacity="1" transform="matrix(1.00216 0 0 1 355 4.4444)"/></g></g></g></g></g></svg>